<?xml version="1.0" encoding="UTF-8"?>
<svg id="Layer_1" xmlns="http://www.w3.org/2000/svg" version="1.1" viewBox="0 0 7825.08 3186.11">
  <!-- Generator: Adobe Illustrator 29.7.1, SVG Export Plug-In . SVG Version: 2.1.1 Build 8)  -->
  <defs>
    <style>
      .st0 {
        fill: #fff;
      }

      .st1 {
        fill: #eb6f2d;
      }

      .st2 {
        fill: #ec6d2d;
      }
    </style>
  </defs>
  <rect class="st0" x="228.54" y="93.05" width="133.31" height="2962.53"/>
  <rect class="st0" x="228.54" y="93.05" width="691.26" height="133.31"/>
  <rect class="st0" x="228.54" y="2922.27" width="691.26" height="133.31"/>
  <rect class="st0" x="7463.23" y="93.05" width="133.31" height="2962.53"/>
  <rect class="st0" x="6905.28" y="93.05" width="691.26" height="133.31"/>
  <rect class="st0" x="6905.28" y="2922.27" width="691.26" height="133.31"/>
  <path class="st2" d="M1208.34,1283.48c-121.1,0-214.48-31.5-280.14-94.49-65.65-63.44-98.48-154.37-98.48-272.82s27.73-204.95,83.18-268.83c55.89-63.88,134.86-95.82,236.89-95.82,96.71,0,171.46,29.06,224.24,87.17,53.24,58.11,79.85,142.62,79.85,253.52,0,31.94-1.32,62.1-3.99,90.5h-501.72v-113.12h363.31c0-58.56-14.19-103.36-42.58-134.41-28.39-31.5-67.65-47.24-117.78-47.24-56.34,0-100.03,19.3-131.09,57.89-30.61,38.59-45.91,93.16-45.91,163.69,0,77.19,21.51,135.97,64.54,176.33,43.47,39.93,105.36,59.88,185.65,59.88,29.72,0,59.22-1.55,88.5-4.65,29.28-3.56,59-8.21,89.17-13.97l17.29,137.74c-42.58,7.99-81.62,13.08-117.11,15.31-35.49,2.21-66.76,3.33-93.82,3.33ZM2084.68,1270.17v-445.83c0-42.59-10.42-75.41-31.27-98.48-20.4-23.07-49.45-34.6-87.17-34.6-104.69,0-157.03,65.21-157.03,195.63l-41.26-194.3h55.23c4.88-47.47,21.95-82.73,51.23-105.8,29.28-23.51,72.32-35.27,129.1-35.27,74.52,0,132.19,22.62,173,67.87,40.81,45.25,61.22,109.13,61.22,191.64v459.13h-153.04ZM1656.16,1270.17v-705.34h137.74l15.31,149.05v556.28h-153.04ZM2467.29,1588.23l-6.65-137.74,226.24-6.66c68.76-1.78,118.66-20.63,149.72-56.56,31.05-35.93,46.58-88.72,46.58-158.37v-515.03l13.3-149.05h139.74v642.79c0,125.54-28.84,218.26-86.51,278.14-57.67,59.88-149.72,91.83-276.15,95.82l-206.28,6.66ZM2686.89,1283.48c-90.94,0-160.37-30.61-208.28-91.83-47.91-61.66-71.86-151.49-71.86-269.49s23.95-212.49,71.86-275.48c47.9-63.44,117.34-95.15,208.28-95.15,55,0,98.47,12.2,130.42,36.6,32.38,24.4,51.9,59.22,58.55,104.47h53.24l-45.91,208.27c0-71.42-13.53-125.1-40.6-161.03-26.61-35.93-66.31-53.9-119.1-53.9s-93.82,20.18-121.77,60.55c-27.95,39.93-41.92,98.48-41.92,175.67s13.75,131.53,41.25,169.68c27.95,38.16,68.76,57.23,122.44,57.23s94.71-17.75,120.44-53.23c26.17-35.94,39.26-89.61,39.26-161.03l47.9,207.6h-61.22c-5.32,45.26-23.96,80.08-55.89,104.48-31.95,24.39-74.31,36.6-127.09,36.6ZM3514,1270.17v-665.41h153.04v665.41h-153.04ZM3247.82,1270.17v-136.4h279.48v136.4h-279.48ZM3653.73,1270.17v-136.4h227.57v136.4h-227.57ZM3287.75,701.24v-136.41h379.29v136.41h-379.29ZM3585.2,457.7c-29.28,0-53.9-9.76-73.87-29.28-19.96-19.96-29.94-44.58-29.94-73.86s9.98-53.68,29.94-73.2c19.97-19.96,44.59-29.94,73.87-29.94s53.67,9.98,73.19,29.94c19.96,19.52,29.94,43.92,29.94,73.2s-9.98,53.9-29.94,73.86c-19.52,19.52-43.92,29.28-73.19,29.28ZM4480.17,1270.17v-445.83c0-42.59-10.42-75.41-31.27-98.48-20.4-23.07-49.45-34.6-87.17-34.6-104.69,0-157.03,65.21-157.03,195.63l-41.26-194.3h55.23c4.88-47.47,21.96-82.73,51.23-105.8,29.28-23.51,72.32-35.27,129.1-35.27,74.53,0,132.19,22.62,173,67.87,40.81,45.25,61.22,109.13,61.22,191.64v459.13h-153.04ZM4051.65,1270.17v-705.34h137.74l15.31,149.05v556.28h-153.04ZM5200.81,1283.48c-121.11,0-214.49-31.5-280.14-94.49-65.66-63.44-98.48-154.37-98.48-272.82s27.73-204.95,83.18-268.83c55.89-63.88,134.85-95.82,236.88-95.82,96.71,0,171.46,29.06,224.24,87.17,53.24,58.11,79.85,142.62,79.85,253.52,0,31.94-1.32,62.1-3.99,90.5h-501.72v-113.12h363.32c0-58.56-14.19-103.36-42.58-134.41-28.39-31.5-67.65-47.24-117.78-47.24-56.34,0-100.03,19.3-131.08,57.89-30.61,38.59-45.92,93.16-45.92,163.69,0,77.19,21.52,135.97,64.54,176.33,43.48,39.93,105.36,59.88,185.65,59.88,29.72,0,59.22-1.55,88.5-4.65,29.28-3.56,59-8.21,89.16-13.97l17.3,137.74c-42.58,7.99-81.62,13.08-117.11,15.31-35.49,2.21-66.77,3.33-93.82,3.33ZM5999.3,1283.48c-121.1,0-214.48-31.5-280.14-94.49-65.65-63.44-98.47-154.37-98.47-272.82s27.72-204.95,83.17-268.83c55.9-63.88,134.86-95.82,236.89-95.82,96.71,0,171.45,29.06,224.24,87.17,53.23,58.11,79.85,142.62,79.85,253.52,0,31.94-1.33,62.1-4,90.5h-501.71v-113.12h363.32c0-58.56-14.2-103.36-42.59-134.41-28.39-31.5-67.64-47.24-117.78-47.24-56.34,0-100.02,19.3-131.08,57.89-30.61,38.59-45.91,93.16-45.91,163.69,0,77.19,21.51,135.97,64.54,176.33,43.47,39.93,105.36,59.88,185.65,59.88,29.71,0,59.22-1.55,88.49-4.65,29.28-3.56,59-8.21,89.17-13.97l17.3,137.74c-42.59,7.99-81.63,13.08-117.12,15.31-35.48,2.21-66.76,3.33-93.82,3.33ZM6695.99,966.74l-41.26-227.57h55.9c7.98-125.1,71.42-187.65,190.3-187.65,70.98,0,123.32,21.96,157.03,65.88,33.72,43.92,50.58,112.45,50.58,205.61h-151.72c0-48.35-7.76-83.18-23.29-104.47-15.08-21.74-39.71-32.6-73.87-32.6-55,0-96.04,24.4-123.09,73.2-27.07,48.8-40.6,118-40.6,207.61ZM6388.57,1270.17v-133.09h477.77v133.09h-477.77ZM6542.95,1270.17v-705.34h126.43l26.61,202.29v503.05h-153.04ZM6415.19,697.91v-133.08h244.87l13.3,133.08h-258.17Z"/>
  <path class="st0" d="M1293.51,2616.87l-9.31-208.94-18.63-58.56v-182.32c0-47.03-16.64-81.4-49.91-103.14-32.83-22.18-81.85-34.16-147.06-35.94l-169.02-4.66,13.31-125.1,142.4,2c116.67,1.77,203.17,27.06,259.51,75.85,56.78,48.36,85.17,119.11,85.17,212.27v294.11l119.78,14.64v113.12l-226.24,6.66ZM1044.65,2623.53c-73.64,0-130.64-17.75-171.01-53.24-40.37-35.49-60.55-85.62-60.55-150.38,0-74.53,27.73-131.75,83.18-171.68,55.9-39.92,134.64-59.89,236.22-59.89,42.14,0,79.63,2.67,112.45,7.99,33.27,4.88,62.77,12.42,88.5,22.62l-29.28,95.82c-29.71-6.66-58.78-10.43-87.17-11.31-28.39-1.33-57.45-2-87.17-2-122.44,0-183.65,37.27-183.65,111.8,0,31.05,10.43,55,31.27,71.86,21.29,16.86,51.24,25.29,89.83,25.29,43.92,0,80.51-7.54,109.79-22.62,29.72-15.09,51.9-34.39,66.54-57.9,14.64-23.51,21.96-47.69,21.96-72.52v-77.19l41.26,180.99h-55.9l22.63-21.29c0,40.81-9.54,74.97-28.62,102.47-18.63,27.06-45.03,47.47-79.18,61.22-34.16,13.31-74.53,19.97-121.1,19.97ZM2014.82,2623.53c-120.22,0-213.15-31.5-278.8-94.49-65.22-63.44-97.82-154.38-97.82-272.82s30.84-204.95,92.5-268.82c62.1-63.88,150.61-95.82,265.49-95.82,68.76,0,127.54,12.86,176.34,38.59,49.24,25.28,84.28,61.22,105.13,107.8l-108.46,81.84c-19.97-32.38-45.47-57.45-76.52-75.19-31.06-17.75-64.99-26.62-101.81-26.62-66.54,0-118.21,20.18-155.04,60.55-36.81,39.93-55.23,96.93-55.23,171.02,0,80.28,21.52,141.73,64.54,184.32,43.48,42.14,105.36,63.21,185.65,63.21,32.83,0,65.66-1.55,98.48-4.66,32.82-3.1,64.77-7.32,95.82-12.64l15.97,123.76c-36.37,7.99-74.08,13.31-113.12,15.97-38.59,2.67-76.3,4-113.12,4ZM2813.31,2623.53c-120.21,0-213.14-31.5-278.8-94.49-65.21-63.44-97.81-154.38-97.81-272.82s30.83-204.95,92.49-268.82c62.1-63.88,150.61-95.82,265.5-95.82,68.76,0,127.54,12.86,176.33,38.59,49.25,25.28,84.28,61.22,105.14,107.8l-108.47,81.84c-19.96-32.38-45.47-57.45-76.52-75.19-31.05-17.75-64.99-26.62-101.8-26.62-66.55,0-118.22,20.18-155.04,60.55-36.82,39.93-55.23,96.93-55.23,171.02,0,80.28,21.51,141.73,64.54,184.32,43.47,42.14,105.36,63.21,185.65,63.21,32.82,0,65.65-1.55,98.47-4.66,32.83-3.1,64.77-7.32,95.82-12.64l15.98,123.76c-36.38,7.99-74.08,13.31-113.12,15.97-38.6,2.67-76.3,4-113.13,4ZM3605.15,2623.53c-120.22,0-213.15-31.5-278.8-94.49-65.22-63.44-97.82-154.38-97.82-272.82s27.73-204.95,83.18-268.82c55.45-63.88,133.75-95.82,234.89-95.82,95.38,0,169.02,28.83,220.92,86.5,52.35,57.67,78.53,141.51,78.53,251.53,0,32.38-1.33,62.55-4,90.5h-495.07v-107.8h371.3c0-63.44-15.08-112.01-45.25-145.73-30.17-34.16-71.86-51.23-125.1-51.23-59.88,0-106.46,20.4-139.73,61.22-32.83,40.81-49.25,98.48-49.25,173.01,0,81.62,22.62,143.72,67.87,186.31,45.69,42.58,110.46,63.87,194.3,63.87,29.28,0,58.12-1.55,86.51-4.65,28.39-3.55,57.23-8.21,86.51-13.97l17.3,123.76c-41.7,7.99-79.85,13.08-114.45,15.31-34.6,2.21-65.22,3.33-91.83,3.33ZM4287.87,2623.53c-53.24,0-98.93-1.56-137.08-4.66-37.7-3.1-72.31-8.21-103.81-15.31l15.97-127.75c46.58,7.09,87.61,12.41,123.1,15.97,35.94,3.55,69.87,5.32,101.81,5.32,71.42,0,123.1-6.87,155.04-20.63,32.38-14.19,48.58-36.6,48.58-67.21,0-21.29-5.77-37.04-17.3-47.24-11.09-10.65-28.39-18.85-51.9-24.62l-162.36-41.26c-69.65-17.75-120.88-39.7-153.72-65.88-32.38-26.17-48.58-65.87-48.58-119.1,0-77.19,29.51-133.09,88.5-167.69,59.45-34.59,155.04-51.89,286.79-51.89,34.16,0,65.88,1.11,95.16,3.32,29.72,1.78,60.11,5.11,91.16,9.98l-14.63,122.44c-35.94-3.56-67.65-5.99-95.16-7.33-27.5-1.32-54.34-1.99-80.51-1.99-78.96,0-136.19,6.88-171.68,20.63-35.49,13.31-53.23,35.26-53.23,65.88,0,20.4,7.32,35.26,21.95,44.59,14.64,8.87,37.04,17.07,67.21,24.62l130.42,31.94c74.08,17.75,128.2,41.48,162.36,71.2,34.6,29.72,51.9,72.98,51.9,129.76,0,75.85-27.72,131.08-83.18,165.68-55.45,34.16-144.39,51.24-266.83,51.24ZM5086.36,2623.53c-53.23,0-98.92-1.56-137.08-4.66-37.7-3.1-72.31-8.21-103.8-15.31l15.97-127.75c46.58,7.09,87.61,12.41,123.1,15.97,35.93,3.55,69.87,5.32,101.8,5.32,71.43,0,123.1-6.87,155.04-20.63,32.39-14.19,48.58-36.6,48.58-67.21,0-21.29-5.77-37.04-17.3-47.24-11.09-10.65-28.39-18.85-51.9-24.62l-162.36-41.26c-69.65-17.75-120.88-39.7-153.71-65.88-32.39-26.17-48.58-65.87-48.58-119.1,0-77.19,29.5-133.09,88.5-167.69,59.44-34.59,155.04-51.89,286.79-51.89,34.16,0,65.88,1.11,95.15,3.32,29.72,1.78,60.11,5.11,91.17,9.98l-14.64,122.44c-35.93-3.56-67.64-5.99-95.15-7.33-27.51-1.32-54.34-1.99-80.52-1.99-78.96,0-136.19,6.88-171.67,20.63-35.49,13.31-53.24,35.26-53.24,65.88,0,20.4,7.32,35.26,21.96,44.59,14.63,8.87,37.04,17.07,67.2,24.62l130.42,31.94c74.08,17.75,128.21,41.48,162.37,71.2,34.6,29.72,51.9,72.98,51.9,129.76,0,75.85-27.73,131.08-83.18,165.68-55.46,34.16-144.39,51.24-266.84,51.24Z"/>
  <rect class="st1" x="5645.28" y="2610.22" width="814.7" height="123.44"/>
</svg>